<svg width="16" height="16" viewBox="0 0 16 16" fill="none" xmlns="http://www.w3.org/2000/svg">
<path fill-rule="evenodd" clip-rule="evenodd" d="M4.78 3.33333L6 2H10L11.22 3.33333H13.3333C14.0667 3.33333 14.6667 3.93333 14.6667 4.66667V12.6667C14.6667 13.4 14.0667 14 13.3333 14H2.66667C1.93334 14 1.33334 13.4 1.33334 12.6667V4.66667C1.33334 3.93333 1.93334 3.33333 2.66667 3.33333H4.78ZM4.66667 8.66667C4.66667 10.5067 6.16 12 8 12C9.84 12 11.3333 10.5067 11.3333 8.66667C11.3333 6.82667 9.84 5.33333 8 5.33333C6.16 5.33333 4.66667 6.82667 4.66667 8.66667ZM8 10.8C9.17821 10.8 10.1333 9.84487 10.1333 8.66667C10.1333 7.48846 9.17821 6.53333 8 6.53333C6.82179 6.53333 5.86667 7.48846 5.86667 8.66667C5.86667 9.84487 6.82179 10.8 8 10.8Z" fill="#969696"/>
</svg>
