<svg width="240" height="54" viewBox="0 0 240 54" fill="none" xmlns="http://www.w3.org/2000/svg">
<path fill-rule="evenodd" clip-rule="evenodd" d="M10.849 32.367L8.52334 36.7374L8.52294 51.4192H0.999023L1.00032 3.61801H8.52423L8.52367 24.4457L18.3737 3.61801H25.8976L15.432 24.9237L25.8963 51.4192H18.1672L10.849 32.367ZM36.5185 40.4249C36.5184 42.1549 36.8718 43.3726 37.5786 44.0783C38.2854 44.7839 39.2315 45.1367 40.4171 45.1367C41.6027 45.1367 42.5489 44.7839 43.2557 44.0783C43.9625 43.3726 44.316 42.1549 44.316 40.4249L44.3167 14.6123C44.3167 12.8823 43.9634 11.6645 43.2566 10.9589C42.5498 10.2532 41.6037 9.90042 40.4181 9.90042C39.2325 9.90042 38.2863 10.2532 37.5795 10.9589C36.8727 11.6645 36.5192 12.8823 36.5192 14.6123L36.5185 40.4249ZM28.9947 15.0904C28.9948 11.2207 29.9753 8.25026 31.9361 6.17886C33.8969 4.10747 36.7241 3.07178 40.4177 3.07178C44.1113 3.07178 46.9384 4.10747 48.8991 6.17886C50.8598 8.25026 51.8401 11.2207 51.84 15.0904L51.8394 39.947C51.8393 43.8166 50.8588 46.7871 48.898 48.8585C46.9371 50.9299 44.1099 51.9656 40.4164 51.9656C36.7228 51.9656 33.8957 50.9299 31.9349 48.8585C29.9742 46.7871 28.9939 43.8166 28.994 39.947L28.9947 15.0904ZM64.1716 16.7976L64.1707 51.4193H57.3992L57.4004 3.61815H66.8395L74.5679 32.2306L74.5687 3.61815H81.2718L81.2705 51.4193H73.5414L64.1716 16.7976ZM86.4896 15.0904C86.4897 11.2207 87.4131 8.25028 89.26 6.17888C91.1068 4.10749 93.877 3.0718 97.5706 3.0718C101.264 3.0718 104.034 4.10749 105.881 6.17888C107.728 8.25028 108.651 11.2207 108.651 15.0904L108.651 16.5927H101.537L101.537 14.6124C101.537 12.8824 101.207 11.6646 100.546 10.959C99.8845 10.2534 98.9612 9.90055 97.7756 9.90055C96.59 9.90055 95.6666 10.2534 95.0054 10.959C94.3442 11.6646 94.0135 12.8824 94.0135 14.6124C94.0134 16.2513 94.3782 17.6967 95.1078 18.9486C95.8373 20.2006 96.7493 21.3842 97.8436 22.4996C98.938 23.6149 100.112 24.7303 101.366 25.8457C102.62 26.961 103.794 28.1788 104.889 29.499C105.983 30.8193 106.895 32.3216 107.624 34.006C108.354 35.6904 108.719 37.6707 108.719 39.947C108.719 43.8166 107.772 46.7871 105.88 48.8585C103.987 50.9299 101.194 51.9656 97.5008 51.9656C93.8073 51.9656 91.0143 50.9299 89.122 48.8585C87.2297 46.7871 86.2836 43.8166 86.2837 39.947L86.2838 37.0107H93.3973L93.3972 40.425C93.3971 42.155 93.7505 43.3614 94.4573 44.0443C95.1641 44.7271 96.1102 45.0686 97.2958 45.0686C98.4814 45.0686 99.4276 44.7271 100.134 44.0443C100.841 43.3614 101.195 42.155 101.195 40.425C101.195 38.7861 100.83 37.3407 100.1 36.0888C99.3709 34.8368 98.4589 33.6532 97.3646 32.5378C96.2702 31.4225 95.0961 30.3071 93.8421 29.1917C92.5881 28.0764 91.414 26.8586 90.3196 25.5384C89.2253 24.2181 88.3133 22.7158 87.5838 21.0314C86.8542 19.347 86.4895 17.3666 86.4896 15.0904ZM111.612 3.61799H134.868L134.867 10.4467H127.001L127 51.4192H119.476L119.478 10.4467H111.612L111.612 3.61799ZM154.653 51.4192C154.562 51.1005 154.47 50.8046 154.379 50.5314C154.288 50.2583 154.208 49.9168 154.14 49.5071C154.071 49.0974 154.026 48.5739 154.003 47.9365C153.98 47.2991 153.969 46.5025 153.969 45.5464L153.969 38.0348C153.969 35.8041 153.582 34.2335 152.806 33.323C152.031 32.4125 150.777 31.9572 149.045 31.9572H146.445L146.445 51.4192H138.921L138.922 3.61797H150.276C154.198 3.61797 157.037 4.52846 158.792 6.34947C160.548 8.17047 161.425 10.9247 161.425 14.6122L161.425 18.368C161.425 23.2848 159.783 26.517 156.5 28.0649C158.415 28.8388 159.726 30.1021 160.433 31.8548C161.14 33.6075 161.493 35.7358 161.493 38.2397L161.493 45.6147C161.493 46.7984 161.538 47.8341 161.63 48.7218C161.721 49.6095 161.949 50.5087 162.313 51.4192H154.653ZM146.446 10.4468L146.446 25.1286H149.387C150.801 25.1286 151.907 24.7644 152.705 24.036C153.503 23.3076 153.902 21.9874 153.902 20.0754L153.902 15.3635C153.902 13.6336 153.594 12.3817 152.979 11.6077C152.363 10.8338 151.394 10.4468 150.072 10.4468H146.446ZM174.373 3.61813L174.372 40.4933C174.372 42.2233 174.725 43.4297 175.432 44.1126C176.139 44.7954 177.085 45.1369 178.27 45.1369C179.456 45.1369 180.402 44.7954 181.109 44.1126C181.816 43.4297 182.169 42.2233 182.169 40.4933L182.17 3.61813H189.284L189.283 40.0153C189.283 43.885 188.336 46.8554 186.444 48.9268C184.552 50.9982 181.759 52.0339 178.065 52.0339C174.371 52.0339 171.578 50.9982 169.686 48.9268C167.794 46.8554 166.848 43.885 166.848 40.0153L166.849 3.61813H174.373ZM215.744 3.61815H239L239 10.4469H231.134L231.133 51.4193H223.609L223.61 10.4469H215.744L215.744 3.61815Z" fill="#1A1A1A"/>
<path fill-rule="evenodd" clip-rule="evenodd" d="M189.953 26.9999L209.497 -0.00012207L209.495 53.9999L189.953 26.9999Z" fill="#1A1A1A"/>
</svg>
