<svg width="238" height="54" viewBox="0 0 238 54" fill="none" xmlns="http://www.w3.org/2000/svg">
<path fill-rule="evenodd" clip-rule="evenodd" d="M9.84927 32.3671L7.52358 36.7375L7.52318 51.4193H-0.000732422L0.000563695 3.61807H7.52448L7.52391 24.4457L17.374 3.61807H24.8979L14.4322 24.9237L24.8966 51.4193H17.1675L9.84927 32.3671ZM35.5187 40.425C35.5187 42.1549 35.872 43.3727 36.5788 44.0783C37.2856 44.784 38.2318 45.1368 39.4174 45.1368C40.603 45.1368 41.5491 44.784 42.256 44.0783C42.9628 43.3727 43.3162 42.1549 43.3162 40.425L43.3169 14.6123C43.317 12.8824 42.9636 11.6646 42.2569 10.9589C41.5501 10.2533 40.6039 9.90048 39.4183 9.90048C38.2327 9.90048 37.2865 10.2533 36.5797 10.9589C35.8729 11.6646 35.5195 12.8824 35.5194 14.6123L35.5187 40.425ZM27.9949 15.0904C27.995 11.2208 28.9755 8.25032 30.9363 6.17892C32.8972 4.10753 35.7244 3.07184 39.4179 3.07184C43.1115 3.07184 45.9386 4.10753 47.8994 6.17892C49.8601 8.25032 50.8404 11.2208 50.8403 15.0904L50.8396 39.947C50.8395 43.8167 49.859 46.7872 47.8982 48.8586C45.9374 50.93 43.1102 51.9656 39.4166 51.9656C35.723 51.9656 32.8959 50.93 30.9352 48.8586C28.9745 46.7872 27.9942 43.8167 27.9943 39.947L27.9949 15.0904ZM63.1719 16.7977L63.1709 51.4194H56.3994L56.4007 3.61821H65.8398L73.5681 32.2306L73.5689 3.61821H80.272L80.2707 51.4194H72.5416L63.1719 16.7977ZM85.4898 15.0905C85.4899 11.2208 86.4134 8.25034 88.2602 6.17894C90.1071 4.10755 92.8772 3.07187 96.5708 3.07187C100.264 3.07187 103.034 4.10755 104.881 6.17894C106.728 8.25034 107.651 11.2208 107.651 15.0905L107.651 16.5928H100.538L100.538 14.6124C100.538 12.8825 100.207 11.6647 99.546 10.9591C98.8848 10.2534 97.9614 9.90061 96.7758 9.90061C95.5902 9.90061 94.6668 10.2534 94.0056 10.9591C93.3444 11.6647 93.0138 12.8825 93.0137 14.6124C93.0137 16.2513 93.3784 17.6967 94.108 18.9487C94.8376 20.2006 95.7495 21.3843 96.8439 22.4996C97.9382 23.615 99.1124 24.7304 100.366 25.8457C101.62 26.9611 102.794 28.1789 103.889 29.4991C104.983 30.8193 105.895 32.3216 106.625 34.0061C107.354 35.6905 107.719 37.6708 107.719 39.9471C107.719 43.8167 106.773 46.7872 104.88 48.8586C102.988 50.93 100.195 51.9657 96.5011 51.9657C92.8075 51.9657 90.0146 50.93 88.1223 48.8586C86.2299 46.7872 85.2838 43.8167 85.2839 39.9471L85.284 37.0107H92.3975L92.3974 40.4251C92.3974 42.155 92.7507 43.3614 93.4575 44.0443C94.1643 44.7272 95.1105 45.0686 96.2961 45.0686C97.4817 45.0686 98.4278 44.7272 99.1347 44.0443C99.8415 43.3614 100.195 42.155 100.195 40.4251C100.195 38.7862 99.8302 37.3408 99.1007 36.0888C98.3711 34.8369 97.4592 33.6533 96.3648 32.5379C95.2704 31.4225 94.0963 30.3072 92.8423 29.1918C91.5884 28.0764 90.4142 26.8587 89.3199 25.5384C88.2255 24.2182 87.3136 22.7159 86.584 21.0315C85.8545 19.347 85.4897 17.3667 85.4898 15.0905ZM110.612 3.61805H133.868L133.868 10.4468H126.002L126.001 51.4192H118.477L118.478 10.4468H110.612L110.612 3.61805ZM153.653 51.4192C153.562 51.1005 153.471 50.8046 153.379 50.5315C153.288 50.2583 153.208 49.9169 153.14 49.5072C153.072 49.0975 153.026 48.5739 153.003 47.9366C152.98 47.2992 152.969 46.5025 152.969 45.5465L152.969 38.0349C152.969 35.8042 152.582 34.2336 151.807 33.3231C151.032 32.4126 149.778 31.9573 148.045 31.9573H145.446L145.445 51.4192H137.921L137.922 3.61803H149.277C153.198 3.61803 156.037 4.52852 157.792 6.34953C159.548 8.17053 160.426 10.9248 160.425 14.6123L160.425 18.3681C160.425 23.2848 158.784 26.5171 155.5 28.0649C157.416 28.8389 158.726 30.1022 159.433 31.8549C160.14 33.6076 160.493 35.7359 160.493 38.2398L160.493 45.6148C160.493 46.7984 160.539 47.8341 160.63 48.7219C160.721 49.6096 160.949 50.5087 161.314 51.4192H153.653ZM145.447 10.4469L145.446 25.1287H148.387C149.801 25.1287 150.907 24.7645 151.705 24.0361C152.503 23.3077 152.902 21.9875 152.902 20.0754L152.902 15.3636C152.902 13.6336 152.594 12.3817 151.979 11.6078C151.363 10.8339 150.394 10.4469 149.072 10.4469H145.447ZM173.373 3.61819L173.372 40.4934C173.372 42.2234 173.725 43.4298 174.432 44.1126C175.139 44.7955 176.085 45.1369 177.271 45.1369C178.456 45.1369 179.402 44.7955 180.109 44.1126C180.816 43.4298 181.169 42.2234 181.169 40.4934L181.17 3.61819H188.284L188.283 40.0154C188.283 43.885 187.337 46.8555 185.444 48.9269C183.552 50.9983 180.759 52.034 177.065 52.034C173.372 52.034 170.579 50.9983 168.686 48.9269C166.794 46.8555 165.848 43.885 165.848 40.0154L165.849 3.61819H173.373ZM214.745 3.61821H238L238 10.4469H230.134L230.133 51.4194H222.609L222.61 10.4469H214.744L214.745 3.61821Z" fill="#1A1A1A"/>
<path fill-rule="evenodd" clip-rule="evenodd" d="M188.954 26.9999L208.497 -6.10352e-05L208.495 53.9999L188.954 26.9999Z" fill="#1A1A1A"/>
</svg>
